<svg xmlns="http://www.w3.org/2000/svg" width="72" height="72"><defs><filter id="a" width="227.8%" height="227.8%" x="-63.9%" y="-63.9%" filterUnits="objectBoundingBox"><feOffset dy="8" in="SourceAlpha" result="shadowOffsetOuter1"/><feGaussianBlur in="shadowOffsetOuter1" result="shadowBlurOuter1" stdDeviation="8"/><feColorMatrix in="shadowBlurOuter1" result="shadowMatrixOuter1" values="0 0 0 0 0.0862745098 0 0 0 0 0.0901960784 0 0 0 0 0.105882353 0 0 0 0.32 0"/><feMerge><feMergeNode in="shadowMatrixOuter1"/><feMergeNode in="SourceGraphic"/></feMerge></filter></defs><g fill="#000" filter="url(#a)"><path d="M33 34h-7a1 1 0 01-1-1v-7a1 1 0 011-1h7a1 1 0 011 1v7a1 1 0 01-1 1zm0 13h-7a1 1 0 01-1-1v-7a1 1 0 011-1h7a1 1 0 011 1v7a1 1 0 01-1 1zm4-21h10v2H37z"/><path d="M37 31h10v2H37zm0 8h10v2H37z" opacity=".64"/><path d="M37 44h10v2H37z"/></g></svg>