<svg xmlns="http://www.w3.org/2000/svg" xmlns:svg="http://www.w3.org/2000/svg" id="svg2" version="1.0" viewBox="0 0 381.32 267.71"><g id="layer1" stroke="#fff" stroke-linecap="round" stroke-linejoin="round" transform="translate(-131.86 -154.22)"><path id="path2383" fill="#000" stroke-dashoffset="1.5" stroke-width="2" d="m147.14 156.65v248.57h353.44l2.28-250-355.72 1.43z"/><path id="path2385" fill="#000" stroke-dashoffset="1.5" stroke-width="2" d="m155.12 166.35l1.14 224.29 335.2 1.43 2.28-225.72h-338.62z"/><g id="g2395" stroke-dashoffset="1.5" stroke-width="2.157" transform="matrix(1 0 0 .85942 98.929 -50.847)"><path id="path2389" d="m212.86 521.72v12.18c0.52 1.16 0.34 2.58 3.57 2.75l52.14-0.39c1.95-0.11 3.88-0.24 3.96-2.39l-0.03-13.65-59.64 1.5z"/><path id="path2393" fill="#000" d="m210.36 502.72v18.21l65.35-1.07v-17.14h-65.35z"/></g><path id="path2401" fill="#000" stroke-dashoffset="1.5" stroke-width="2" d="m439.75 399.04l14.15-2.23c0.9 4.25 0.16 8.49 0 12.73l-13.83-2.22-0.32-8.28z"/><path id="path2399" fill="#000" stroke-dashoffset="1.5" stroke-width="2" d="m389.57 395.58c-0.98 5.6-0.74 10.72 0 14.64h50.82c1.43-4.53 1.65-8.45 0-14.33l-50.82-0.31z"/><path id="path2403" fill="#000" stroke-dashoffset="1.5" stroke-width="2" d="m454.52 406.04h3.62l-0.06-5.73h-3.86l0.3 5.73z"/><path id="path2387" fill="#000" stroke-dashoffset="1.5" stroke-width="2" d="m132.86 405.22l379.32-0.09-3.85 15.8-371-1.42-4.47-14.29z"/><path id="path3193" fill="#000" fill-rule="evenodd" stroke-width="2" d="m318.76 238.83h22.52"/><path id="path3196" fill="none" stroke-width="2" d="m261.99 211.38c16.16 0.06 32.31-1.64 48.47-1.43 5.88 0.88 9.73 9.11 8.31 14.78-0.1 10.41 0.33 20.83-0.26 31.23-1.41 5.4-6.65 9.52-11.92 8.32-15.25-0.1-31.4-0.67-46.65-1.07-5.08-0.46-8.63-7.5-7.77-13.67 0.17-10.45-0.54-20.93 0.45-31.35 1.29-3.94 5.22-6.92 9.37-6.81z"/><path id="path3198" fill="#000" fill-rule="evenodd" stroke-width="2" d="m366.99 285.61c-9.38 9.15-18.77 18.3-28.16 27.45 9.64 9.15 19.27 18.3 28.9 27.45 8.65-9.15 17.29-18.3 25.94-27.45-8.89-9.15-17.79-18.3-26.68-27.45z"/><path id="path3200" fill="#000" stroke-width="2" d="m391.18 239.54c1.26 25.35-34.01 37.79-45.89 15.89-13.13-18.25 4.43-49.17 24.85-42.68 11.3 2.11 21.94 13.29 21.04 26.79z"/><path id="path3202" fill="#000" fill-rule="evenodd" stroke-width="2" d="m366.74 266.29v18.3"/><path id="path3204" fill="#000" fill-rule="evenodd" stroke-width="2" d="m340.79 314.07l-39.66 2.04c-8.38 0.07-12.67-2.86-14.68-13.22v-38.64"/><path id="path3206" fill="#000" fill-rule="evenodd" stroke-width="2" d="m331 231.72l-0.49 13.72 9.79-7.11-9.3-6.61z"/><path id="path3208" fill="#000" fill-rule="evenodd" stroke-width="2" d="m373.6 275.03l-13.72 0.32 7.34 8.05 6.38-8.37z"/><path id="path3210" fill="#000" fill-rule="evenodd" stroke-width="2" d="m280.74 272.5l13.69-0.9-7.65-7.73-6.04 8.63z"/></g></svg>